<?xml version="1.0" encoding="UTF-8" standalone="no"?>
<svg
   xmlns:dc="http://purl.org/dc/elements/1.1/"
   xmlns:cc="http://creativecommons.org/ns#"
   xmlns:rdf="http://www.w3.org/1999/02/22-rdf-syntax-ns#"
   xmlns:svg="http://www.w3.org/2000/svg"
   xmlns="http://www.w3.org/2000/svg"
   version="1.1"
   id="Layer_1"
   x="0px"
   y="0px"
   width="96px"
   height="96px"
   viewBox="0 0 96 96"
   style="enable-background:new 0 0 96 96;"
   xml:space="preserve"><metadata
   id="metadata15"><rdf:RDF><cc:Work
       rdf:about=""><dc:format>image/svg+xml</dc:format><dc:type
         rdf:resource="http://purl.org/dc/dcmitype/StillImage" /><dc:title></dc:title></cc:Work></rdf:RDF></metadata><defs
   id="defs13" />
<rect
   y="0"
   x="0"
   height="96"
   width="96"
   style="opacity:0;fill:#000000"
   id="icon-l-play_3_" /><circle
   style="opacity:0.15;fill:#000000"
   cx="48"
   cy="48.000999"
   r="44"
   id="circle3" />
<g
   id="g998"><path
     style="fill:#000000"
     d="m 38.457002,66.5605 c -1.193,0 -2.585,-0.857 -2.585,-3.273 v -30.575 c 0,-2.416 1.393,-3.273 2.585,-3.273 0.72,0 1.469,0.284 2.228,0.843 l 2.23686,1.650096 0.33462,31.887587 -2.57248,1.897317 c -0.758,0.559 -1.508,0.843 -2.227,0.843 z m -0.001,-35.122 c -0.543,0 -0.585,0.975 -0.585,1.273 v 30.574 c 0,0.299 0.042,1.273 0.585,1.273 0.271,0 0.65,-0.165 1.04,-0.452 l 3.21789,-2.373337 0.124009,-27.377136 -3.340899,-2.464527 c -0.39,-0.288 -0.769,-0.453 -1.041,-0.453 z"
     id="path5-6" /><path
     style="fill:#000000"
     d="m 44.457002,66.5605 c -1.193,0 -2.585,-0.857 -2.585,-3.273 v -30.575 c 0,-2.416 1.393,-3.273 2.585,-3.273 0.72,0 1.469,0.284 2.228,0.843 l 19.708997,14.539 c 1.103,0.813 1.734,1.972 1.734,3.18 0,1.207 -0.633,2.366 -1.734,3.179 l -19.709997,14.537 c -0.758,0.559 -1.508,0.843 -2.227,0.843 z m -0.001,-35.122 c -0.543,0 -0.585,0.975 -0.585,1.273 v 30.574 c 0,0.299 0.042,1.273 0.585,1.273 0.271,0 0.65,-0.165 1.04,-0.452 l 19.709997,-14.537 c 0.595,-0.438 0.922,-0.996 0.922,-1.569 0,-0.574 -0.327,-1.132 -0.922,-1.57 L 45.497002,31.8915 c -0.39,-0.288 -0.769,-0.453 -1.041,-0.453 z"
     id="path5-7" /></g></svg>