<svg xmlns="http://www.w3.org/2000/svg" viewBox="0 0 32 32"><path d="M13.873 14.716c-1.034.706-1.034 1.861 0 2.568l16.247 11.1c1.034.705 1.88.26 1.88-.993V4.61c0-1.252-.846-1.699-1.88-.992z" fill="#fff"/><path d="M24.621 28.709c.5-.068.83-.536.83-1.318V4.609c0-1.252-.847-1.699-1.88-.992l-4.669 3.19V4.609c0-1.252-.844-1.699-1.878-.992L.776 14.717c-1.034.706-1.034 1.861 0 2.568l16.248 11.098c1.034.706 1.878.26 1.878-.992v-2.198l4.668 3.19c.388.265.751.367 1.051.326z" opacity=".6" fill="#fff"/></svg>